# xmcd
#
# Track frame offsets: 
#        150
#        19000
#        31163
#        49198
#        67415
#        88755
#        103575
#        122946
#        141620
#        161912
#        179357
#
# Disc length: 2619 seconds
#
# Revision: 0
# Processed by: cddbd v1.5.2PL0 Copyright (c) Steve Scherf et al.
# Submitted via: ExactAudioCopy v1.0b4
#
DISCID=a40a390b
DTITLE=Dani Wilde - Songs About You
DYEAR=2015
DGENRE=Blues
TTITLE0=Open Road
TTITLE1=Change Your Mind
TTITLE2=That Ain't Love
TTITLE3=Change
TTITLE4=Loving You
TTITLE5=Let Me Be Your Sunshine
TTITLE6=Time
TTITLE7=Begging for Love
TTITLE8=Diamond in the Dark
TTITLE9=Flame
TTITLE10=Cruel World
EXTD=
EXTT0=
EXTT1=
EXTT2=
EXTT3=
EXTT4=
EXTT5=
EXTT6=
EXTT7=
EXTT8=
EXTT9=
EXTT10=
PLAYORDER=
